<svg width="203" height="202" viewBox="0 0 203 202" fill="none" xmlns="http://www.w3.org/2000/svg">
<path fill-rule="evenodd" clip-rule="evenodd" d="M120.383 172.45L172.664 81.8963L82.1102 29.6149L29.8287 120.169L120.383 172.45ZM62.533 79.6101C50.5391 100.384 57.6568 126.948 78.4309 138.942C99.205 150.936 125.769 143.818 137.763 123.044C149.757 102.27 142.639 75.7062 121.865 63.7122C101.091 51.7183 74.527 58.836 62.533 79.6101Z" fill="#BF1633"/>
<path fill-rule="evenodd" clip-rule="evenodd" d="M64.3999 165.031L165.4 137.969L138.337 36.9685L37.337 64.0314L64.3999 165.031ZM89.142 58.4774C65.9715 64.6859 52.2211 88.5023 58.4296 111.673C64.6382 134.843 88.4545 148.594 111.625 142.385C134.795 136.177 148.546 112.36 142.337 89.1897C136.129 66.0193 112.312 52.2689 89.142 58.4774Z" fill="#BF1633"/>
</svg>
